<svg xmlns="http://www.w3.org/2000/svg" version="1.1" xmlns:xlink="http://www.w3.org/1999/xlink" width="200" height="70" viewBox="0 0 200 70"><svg xml:space="preserve" width="200" height="70" data-version="2" data-id="lg_E7LeuhZYa5vOnEnjuj" viewBox="0 0 757 70" x="0" y="0"><rect width="100%" height="100%" fill="transparent"></rect><g transform="translate(70.513 86)scale(1.8804)"><linearGradient id="a" x1="0" x2="1" y1="0" y2="0" gradientUnits="objectBoundingBox"><stop offset="0%" stop-color="#f00b51"></stop><stop offset="100%" stop-color="#730062"></stop></linearGradient><path fill="url(#a)" d="M83.62 13.85c0-.35-.14-.7-.39-.94L75.7 5.38c-.5-.5-1.39-.5-1.89 0l-5.67 5.67-2.82-2.83A2.67 2.67 0 0 0 61.55 12L32.93 40.6l3.45 3.45-3.44 3.44a1.33 1.33 0 0 0 0 1.88l1.26 1.25-2.4 2.4 3.77 3.76 2.4-2.39 1.25 1.26a1.33 1.33 0 0 0 1.88 0l3.44-3.44L48 55.67l18.1-18.1 4.3 4.3a2.6 2.6 0 0 0 .65 2.53c7.717 7.723 7.726 20.236.02 27.97a19.6 19.6 0 0 1-7.85 4.79q-1.5.2-2.87.7c-6.09 1-12.56-.82-17.25-5.51a2.6 2.6 0 0 0-2.53-.65l-2.7-2.7c.22-.88.04-1.85-.65-2.54L22.14 51.4a2.662 2.662 0 0 0-3.77 3.76l15.07 15.07c.52.52 1.2.78 1.88.78q.34-.02.66-.13l1.71 1.72-4.8-.41a3.77 3.77 0 0 0-6.44-1.5l-8.25-3.23a1.331 1.331 0 0 0-.97 2.48l8.24 3.23-.01.05a3.8 3.8 0 0 0 7.2 1.62l6.17.53q.18.4.5.74a25 25 0 0 0 13.8 7.02 15.3 15.3 0 0 0-3.1 9.2V95h30.71v-2.66c0-6.1-3.57-11.35-8.71-13.83q1.46-1.07 2.8-2.38c9.782-9.815 9.773-25.696-.02-35.5a2.6 2.6 0 0 0-2.54-.65l-4.29-4.3 8.64-8.63a2.66 2.66 0 0 0 3.76 0 2.66 2.66 0 0 0 0-3.76l-2.82-2.83 5.67-5.67q.39-.39.4-.94m-54.37 60.5a1.13 1.13 0 1 1 0-2.26 1.13 1.13 0 0 1 0 2.26M65.4 82.3c4.6 0 8.5 3.12 9.67 7.36H55.73c.84-3.04 3.1-5.5 6-6.64q1.32-.24 2.6-.63.53-.08 1.06-.09M40.17 52.83l-4.4-4.4 2.5-2.49 4.4 4.4zM48 48.14l-7.54-7.53 24.86-24.86 3.77 3.77 3.76 3.77zm27.68-29.56-5.65-5.65 4.73-4.73 5.65 5.65z" transform="translate(-50.007 -50.002)"></path></g><g transform="translate(218.874 91.338)"><linearGradient id="b" x1="-.005" x2="6.696" y1="0" y2="0" gradientUnits="objectBoundingBox"><stop offset="0%" stop-color="#0f3054"></stop><stop offset="49.8%" stop-color="#3b8dcb"></stop><stop offset="100%" stop-color="#0f3054"></stop></linearGradient><path fill="url(#b)" d="M274.23 339.88q6.45 0 11.85 2.67 5.39 2.67 8.55 7.5 3.16 4.84 3.16 10.79 0 15.75-14.26 19.84v.5q16.25 3.72 16.25 21.32 0 6.7-3.29 11.85-3.28 5.14-8.99 7.99-5.7 2.86-12.52 2.86h-57.54v-85.32zm-29.38 18.73v14.51h18.84q2.73 0 4.53-1.93 1.8-1.92 1.8-4.77v-1.24q0-2.73-1.86-4.65-1.86-1.92-4.47-1.92zm0 32.11v14.64h20.83q2.73 0 4.52-1.93 1.8-1.92 1.8-4.77v-1.24q0-2.85-1.8-4.77-1.79-1.93-4.52-1.93z" transform="translate(-258.61 -382.54)"></path></g><g transform="translate(285.65 89.048)"><linearGradient id="c" x1="-2.348" x2="14.643" y1="0" y2="0" gradientUnits="objectBoundingBox"><stop offset="0%" stop-color="#0f3054"></stop><stop offset="49.8%" stop-color="#3b8dcb"></stop><stop offset="100%" stop-color="#0f3054"></stop></linearGradient><path fill="url(#c)" d="M337.72 352.04h-24.67V335.3h24.67zm0 73.16h-24.67v-65.48h24.67z" transform="translate(-325.385 -380.25)"></path></g><g transform="translate(347.644 101.258)"><linearGradient id="d" x1="-1.672" x2="6.311" y1="0" y2="0" gradientUnits="objectBoundingBox"><stop offset="0%" stop-color="#0f3054"></stop><stop offset="49.8%" stop-color="#3b8dcb"></stop><stop offset="100%" stop-color="#0f3054"></stop></linearGradient><path fill="url(#d)" d="M387.32 358.24q17.24 0 27.1 8.74 9.85 8.74 9.85 25.48 0 16.74-9.85 25.48-9.86 8.74-27.1 8.74-17.23 0-27.03-8.68t-9.8-25.54q0-16.86 9.8-25.54t27.03-8.68m0 16.74q-12.15 0-12.15 14.01v7.07q0 13.88 12.15 13.88 12.28 0 12.28-13.88v-7.07q0-14.01-12.28-14.01" transform="translate(-387.38 -392.46)"></path></g><g transform="translate(409.65 89.048)"><linearGradient id="e" x1="-5.351" x2="11.64" y1="0" y2="0" gradientUnits="objectBoundingBox"><stop offset="0%" stop-color="#0f3054"></stop><stop offset="49.8%" stop-color="#3b8dcb"></stop><stop offset="100%" stop-color="#0f3054"></stop></linearGradient><path fill="url(#e)" d="M461.72 425.2h-24.67v-89.9h24.67z" transform="translate(-449.385 -380.25)"></path></g><g transform="translate(471.644 101.258)"><linearGradient id="f" x1="-3.171" x2="4.811" y1="0" y2="0" gradientUnits="objectBoundingBox"><stop offset="0%" stop-color="#0f3054"></stop><stop offset="49.8%" stop-color="#3b8dcb"></stop><stop offset="100%" stop-color="#0f3054"></stop></linearGradient><path fill="url(#f)" d="M511.32 358.24q17.98 0 27.47 8.43 9.48 8.43 9.48 25.79v4.22h-49.1q0 7.06 3.16 10.66 3.16 3.6 9.98 3.6 6.2 0 9.12-2.61 2.91-2.6 2.91-6.94h23.93q0 11.9-9.05 18.6-9.05 6.69-26.41 6.69-18.23 0-28.27-8.49-10.05-8.49-10.05-25.73 0-16.86 9.8-25.54t27.03-8.68m.99 15.74q-11.65 0-13.02 11.04h24.06q0-5.08-2.91-8.06-2.92-2.98-8.13-2.98" transform="translate(-511.38 -392.46)"></path></g><g transform="translate(554.42 100.518)"><linearGradient id="g" x1="-4.171" x2="3.811" y1="0" y2="0" gradientUnits="objectBoundingBox"><stop offset="0%" stop-color="#0f3054"></stop><stop offset="49.8%" stop-color="#3b8dcb"></stop><stop offset="100%" stop-color="#0f3054"></stop></linearGradient><path fill="url(#g)" d="M605.31 358.24q11.41 0 17.12 6.32 5.7 6.32 5.7 18.23v42.41h-24.68v-39.44q0-4.21-2.17-6.75-2.17-2.55-6.13-2.55-4.59 0-7.44 2.98-2.86 2.98-2.86 7.32v38.44h-24.67v-65.48h20.21l1.61 9.92q3.85-5.2 10.11-8.3 6.26-3.1 13.2-3.1" transform="translate(-594.155 -391.72)"></path></g><g transform="translate(633.464 101.258)"><linearGradient id="h" x1="-5.645" x2="3.161" y1="0" y2="0" gradientUnits="objectBoundingBox"><stop offset="0%" stop-color="#0f3054"></stop><stop offset="49.8%" stop-color="#3b8dcb"></stop><stop offset="100%" stop-color="#0f3054"></stop></linearGradient><path fill="url(#h)" d="M674.01 358.24q13.14 0 22.26 5.14 9.11 5.15 9.11 15.94h-22.94q0-3.6-3.22-5.09-2.23-1.24-5.58-1.24-8.93 0-8.93 4.22 0 2.35 3.1 3.35 3.1.99 10.17 2.1 8.68 1.24 14.51 2.92 5.82 1.67 10.16 5.95t4.34 11.97q0 12.52-9.36 17.85-9.36 5.33-24.49 5.33-8.68 0-16.37-2.41-7.68-2.42-12.52-7.51-4.84-5.08-4.84-12.89h22.94v.49q.13 4.22 3.54 5.89 3.41 1.68 7.25 1.68 10.29 0 10.29-4.84 0-2.48-3.22-3.59-3.22-1.12-10.54-2.36-8.8-1.49-14.45-3.22-5.64-1.74-9.85-5.89-4.22-4.16-4.22-11.6 0-12.03 9.11-17.11 9.12-5.08 23.75-5.08" transform="translate(-673.2 -392.46)"></path></g><g transform="translate(712.824 101.258)"><linearGradient id="i" x1="-6.087" x2="1.895" y1="0" y2="0" gradientUnits="objectBoundingBox"><stop offset="0%" stop-color="#0f3054"></stop><stop offset="49.8%" stop-color="#3b8dcb"></stop><stop offset="100%" stop-color="#0f3054"></stop></linearGradient><path fill="url(#i)" d="M752.5 358.24q17.98 0 27.47 8.43 9.48 8.43 9.48 25.79v4.22h-49.1q0 7.06 3.16 10.66 3.16 3.6 9.98 3.6 6.2 0 9.12-2.61 2.91-2.6 2.91-6.94h23.93q0 11.9-9.05 18.6-9.05 6.69-26.41 6.69-18.23 0-28.27-8.49-10.05-8.49-10.05-25.73 0-16.86 9.8-25.54t27.03-8.68m.99 15.74q-11.65 0-13.02 11.04h24.06q0-5.08-2.91-8.06-2.92-2.98-8.13-2.98" transform="translate(-752.56 -392.46)"></path></g></svg></svg>